<svg xmlns="http://www.w3.org/2000/svg" xmlns:xlink="http://www.w3.org/1999/xlink" width="32" zoomAndPan="magnify" viewBox="0 0 375 374.999991" height="32" preserveAspectRatio="xMidYMid meet" version="1.0"><defs><clipPath id="6cf3abc876"><path d="M 27 10.910156 L 293 10.910156 L 293 271 L 27 271 Z M 27 10.910156 " clip-rule="nonzero"/></clipPath><clipPath id="59d57ce48d"><path d="M 34 266 L 330 266 L 330 364.160156 L 34 364.160156 Z M 34 266 " clip-rule="nonzero"/></clipPath></defs><g clip-path="url(#6cf3abc876)"><path fill="#1074ba" d="M 209.09375 11.867188 C 231.1875 14.285156 254.109375 21.667969 271.769531 35.519531 C 281.054688 42.933594 289.875 53.011719 292.144531 64.992188 C 293.386719 71.214844 291.910156 76.941406 289.265625 82.535156 C 280.609375 71.894531 268.890625 64.910156 255.75 61.269531 C 241.265625 57.378906 225.527344 56.074219 210.683594 58.421875 C 222.515625 59.066406 234.066406 59.828125 245.472656 63.402344 C 261.441406 68.152344 276.402344 76.957031 285.125 91.589844 C 272.613281 82.289062 257.621094 78.628906 242.160156 79.871094 C 227.148438 81.210938 211.824219 85.597656 198.550781 92.796875 C 210.765625 89.15625 222.699219 85.730469 235.539062 85.433594 C 252.40625 84.804688 269.320312 88.574219 281.980469 100.328125 C 273.523438 125.480469 265.746094 154.773438 269.304688 181.371094 C 252.570312 198.894531 227.214844 208.046875 204.078125 213.242188 C 182.230469 217.894531 159.476562 220.507812 137.132812 219.832031 C 166.609375 213.410156 194.84375 206.160156 221.722656 191.960938 C 230.460938 187.226562 239.265625 181.75 246.347656 174.714844 C 223.589844 183.851562 200.238281 190.671875 175.910156 193.980469 C 158.25 196.546875 140.839844 195.519531 123.03125 197.570312 C 104.0625 199.605469 86.074219 202.734375 69.488281 212.730469 C 75.84375 200.582031 84.566406 189.828125 95.605469 181.652344 C 101.679688 176.867188 108.484375 173.589844 115.152344 169.769531 C 86.074219 177.664062 59.824219 197.042969 48.519531 225.65625 C 42.53125 240.171875 41.386719 255.28125 41.46875 270.820312 C 36.109375 255.777344 31.574219 240.582031 29.191406 224.761719 C 25.515625 200.601562 26.542969 175.992188 35.378906 153.019531 C 46.238281 124.539062 67.207031 101.21875 93.042969 85.347656 C 73.097656 92.515625 56.347656 105.207031 42.28125 120.878906 C 48.902344 106.382812 56.828125 92.664062 67.320312 80.617188 C 84.949219 59.878906 108.730469 44.800781 134.863281 37.320312 C 153.816406 31.644531 173.195312 30.472656 192.855469 30.785156 C 166.675781 23.769531 139.746094 23.933594 113.050781 27.65625 C 142.957031 14.914062 176.621094 8.3125 209.09375 11.867188 Z M 209.09375 11.867188 " fill-opacity="1" fill-rule="nonzero"/></g><path fill="#1074ba" d="M 307.105469 64.097656 C 324.101562 81.625 337.078125 102.578125 343.316406 126.308594 C 351.046875 155.136719 348.332031 185.640625 340.105469 214.054688 C 335.09375 232.0625 327.480469 248.777344 320.363281 265.988281 C 323.207031 242.800781 318.921875 219.929688 310.582031 198.316406 C 312.070312 212.398438 314.121094 226.152344 312.75 240.402344 C 310.878906 235.898438 309.207031 231.480469 306.722656 227.261719 C 298.332031 212.484375 283.984375 200.5 275.246094 185.671875 C 272.546875 143.785156 286.8125 100.34375 307.105469 64.097656 Z M 307.105469 64.097656 " fill-opacity="1" fill-rule="nonzero"/><g clip-path="url(#59d57ce48d)"><path fill="#1174ba" d="M 89.847656 266.714844 C 110.765625 266.648438 130.378906 270.15625 150.820312 273.914062 C 163.746094 276.148438 176.089844 279.042969 189.234375 277.355469 C 210.914062 274.527344 233.207031 268.765625 255.433594 267.378906 C 271.703125 265.921875 289.246094 266.75 304.6875 272.441406 C 312.054688 276.199219 321.421875 274.277344 329.761719 274.988281 C 329.546875 280.734375 329.132812 286.460938 328.636719 292.183594 C 323.390625 293.226562 318.558594 294.667969 313.707031 296.886719 C 314.1875 310.15625 313.890625 322.71875 308.808594 335.199219 C 304.722656 345.34375 296.792969 353.75 286.417969 357.507812 C 269.917969 363.363281 251.527344 365.433594 234.167969 363.347656 C 222.035156 361.710938 209.375 357.160156 201.265625 347.558594 C 193.453125 338.308594 190.921875 325.085938 190.425781 313.320312 C 189.945312 307.808594 191.699219 302.941406 187.148438 298.773438 C 181.933594 293.757812 172.914062 296.554688 171.324219 303.503906 C 170.265625 312.257812 171.191406 320.933594 168.660156 329.570312 C 166.144531 340.839844 159.625 350.65625 149.414062 356.28125 C 133.988281 364.988281 113.628906 365.269531 96.535156 362.867188 C 83.128906 360.417969 68.828125 357.953125 59.59375 346.949219 C 47.859375 332.980469 46.949219 314.210938 47.625 296.835938 C 44.382812 295.542969 41.121094 294.304688 37.828125 293.144531 C 36.371094 287.136719 35.246094 281.113281 34.683594 274.957031 C 42.066406 274.394531 49.449219 275.882812 55.902344 272.707031 C 66.925781 268.386719 78.113281 267.226562 89.847656 266.714844 Z M 89.847656 266.714844 " fill-opacity="1" fill-rule="nonzero"/></g><path fill="#ffffff" d="M 161.839844 287.714844 C 164.207031 303.238281 165.25 321.511719 159.457031 336.40625 C 155.46875 346.832031 146.351562 352.773438 135.957031 355.71875 C 117.371094 360.765625 96.515625 358.53125 78.328125 352.757812 C 69.175781 349.960938 62.441406 343.273438 58.898438 334.46875 C 53.105469 320.367188 53.636719 303.074219 55.738281 288.246094 C 56.414062 285.382812 55.671875 282.023438 59.164062 281.046875 C 91.71875 269.03125 130.347656 274.890625 161.839844 287.714844 Z M 161.839844 287.714844 " fill-opacity="1" fill-rule="nonzero"/><path fill="#ffffff" d="M 304.488281 282.039062 C 306.789062 294.386719 307.980469 307.492188 306.179688 319.972656 C 304.871094 329.703125 301.445312 340.164062 293.796875 346.765625 C 287.855469 352.078125 280.242188 353.699219 272.714844 355.585938 C 260.085938 358.25 246.664062 359.625 233.871094 357.507812 C 224.585938 356.183594 214.523438 352.855469 207.902344 345.921875 C 201.414062 339.402344 198.898438 328.808594 198.054688 319.9375 C 197.425781 309.179688 197.457031 298.058594 199.644531 287.484375 C 232.113281 274.773438 271.304688 268.585938 304.488281 282.039062 Z M 304.488281 282.039062 " fill-opacity="1" fill-rule="nonzero"/></svg>