<svg xmlns="http://www.w3.org/2000/svg" xmlns:xlink="http://www.w3.org/1999/xlink" width="500" zoomAndPan="magnify" viewBox="0 0 375 74.999997" height="100" preserveAspectRatio="xMidYMid meet" version="1.0"><defs><g/></defs><g fill="#1174ba" fill-opacity="1"><g transform="translate(3.750007, 61.156015)"><g><path d="M 28.5625 -3.359375 C 28.5625 -3.023438 28.445312 -2.785156 28.21875 -2.640625 C 27.988281 -2.492188 27.734375 -2.503906 27.453125 -2.671875 L 2.859375 -13.90625 C 2.398438 -14.113281 2.171875 -14.46875 2.171875 -14.96875 L 2.171875 -18.75 C 2.171875 -19.25 2.398438 -19.601562 2.859375 -19.8125 L 27.453125 -31.046875 C 27.691406 -31.128906 27.832031 -31.171875 27.875 -31.171875 C 28.332031 -31.171875 28.5625 -30.898438 28.5625 -30.359375 L 28.5625 -26.453125 C 28.5625 -25.992188 28.332031 -25.640625 27.875 -25.390625 L 8.75 -17.015625 C 8.5 -16.890625 8.5 -16.765625 8.75 -16.640625 L 27.875 -8.265625 C 28.332031 -8.054688 28.5625 -7.703125 28.5625 -7.203125 Z M 28.5625 -3.359375 "/></g></g></g><g fill="#1174ba" fill-opacity="1"><g transform="translate(34.488083, 61.156015)"><g><path d="M 6.015625 0 C 5.734375 0 5.507812 -0.0820312 5.34375 -0.25 C 5.175781 -0.414062 5.09375 -0.644531 5.09375 -0.9375 L 5.09375 -42.53125 C 5.09375 -42.820312 5.175781 -43.050781 5.34375 -43.21875 C 5.507812 -43.382812 5.734375 -43.46875 6.015625 -43.46875 L 10 -43.46875 C 10.5 -43.46875 10.867188 -43.257812 11.109375 -42.84375 L 30.109375 -12.109375 C 30.191406 -11.984375 30.273438 -11.929688 30.359375 -11.953125 C 30.441406 -11.972656 30.484375 -12.066406 30.484375 -12.234375 L 30.484375 -42.53125 C 30.484375 -42.820312 30.566406 -43.050781 30.734375 -43.21875 C 30.898438 -43.382812 31.128906 -43.46875 31.421875 -43.46875 L 35.515625 -43.46875 C 35.804688 -43.46875 36.035156 -43.382812 36.203125 -43.21875 C 36.367188 -43.050781 36.453125 -42.820312 36.453125 -42.53125 L 36.453125 -0.9375 C 36.453125 -0.644531 36.367188 -0.414062 36.203125 -0.25 C 36.035156 -0.0820312 35.804688 0 35.515625 0 L 31.484375 0 C 30.984375 0 30.609375 -0.207031 30.359375 -0.625 L 11.359375 -31.546875 C 11.273438 -31.671875 11.191406 -31.722656 11.109375 -31.703125 C 11.023438 -31.679688 10.984375 -31.585938 10.984375 -31.421875 L 11.046875 -0.9375 C 11.046875 -0.644531 10.960938 -0.414062 10.796875 -0.25 C 10.640625 -0.0820312 10.414062 0 10.125 0 Z M 6.015625 0 "/></g></g></g><g fill="#1174ba" fill-opacity="1"><g transform="translate(75.968958, 61.156015)"><g><path d="M 23.15625 -30.671875 C 23.15625 -30.960938 23.238281 -31.191406 23.40625 -31.359375 C 23.570312 -31.523438 23.800781 -31.609375 24.09375 -31.609375 L 28.125 -31.609375 C 28.414062 -31.609375 28.644531 -31.523438 28.8125 -31.359375 C 28.976562 -31.191406 29.0625 -30.960938 29.0625 -30.671875 L 29.0625 -0.9375 C 29.0625 -0.644531 28.976562 -0.414062 28.8125 -0.25 C 28.644531 -0.0820312 28.414062 0 28.125 0 L 24.09375 0 C 23.800781 0 23.570312 -0.0820312 23.40625 -0.25 C 23.238281 -0.414062 23.15625 -0.644531 23.15625 -0.9375 L 23.15625 -2.796875 C 23.15625 -2.921875 23.113281 -2.992188 23.03125 -3.015625 C 22.945312 -3.035156 22.863281 -3.003906 22.78125 -2.921875 C 21.125 -0.679688 18.601562 0.4375 15.21875 0.4375 C 13.1875 0.4375 11.3125 0.046875 9.59375 -0.734375 C 7.875 -1.523438 6.492188 -2.6875 5.453125 -4.21875 C 4.421875 -5.75 3.90625 -7.613281 3.90625 -9.8125 L 3.90625 -30.671875 C 3.90625 -30.960938 3.988281 -31.191406 4.15625 -31.359375 C 4.320312 -31.523438 4.550781 -31.609375 4.84375 -31.609375 L 8.875 -31.609375 C 9.164062 -31.609375 9.394531 -31.523438 9.5625 -31.359375 C 9.726562 -31.191406 9.8125 -30.960938 9.8125 -30.671875 L 9.8125 -11.671875 C 9.8125 -9.515625 10.378906 -7.816406 11.515625 -6.578125 C 12.648438 -5.335938 14.253906 -4.71875 16.328125 -4.71875 C 18.398438 -4.71875 20.054688 -5.347656 21.296875 -6.609375 C 22.535156 -7.867188 23.15625 -9.554688 23.15625 -11.671875 Z M 23.15625 -30.671875 "/></g></g></g><g fill="#1174ba" fill-opacity="1"><g transform="translate(109.377207, 61.156015)"><g><path d="M 18.1875 -31.921875 C 19.4375 -31.921875 20.554688 -31.691406 21.546875 -31.234375 C 22.003906 -30.984375 22.171875 -30.585938 22.046875 -30.046875 L 21.171875 -26.015625 C 21.128906 -25.597656 20.921875 -25.390625 20.546875 -25.390625 C 20.347656 -25.390625 20.1875 -25.410156 20.0625 -25.453125 C 19.4375 -25.660156 18.726562 -25.765625 17.9375 -25.765625 C 17.53125 -25.765625 17.222656 -25.742188 17.015625 -25.703125 C 15.066406 -25.617188 13.460938 -24.945312 12.203125 -23.6875 C 10.941406 -22.425781 10.3125 -20.78125 10.3125 -18.75 L 10.3125 -0.9375 C 10.3125 -0.644531 10.226562 -0.414062 10.0625 -0.25 C 9.894531 -0.0820312 9.664062 0 9.375 0 L 5.28125 0 C 4.988281 0 4.757812 -0.0820312 4.59375 -0.25 C 4.425781 -0.414062 4.34375 -0.644531 4.34375 -0.9375 L 4.34375 -30.671875 C 4.34375 -30.960938 4.425781 -31.191406 4.59375 -31.359375 C 4.757812 -31.523438 4.988281 -31.609375 5.28125 -31.609375 L 9.375 -31.609375 C 9.664062 -31.609375 9.894531 -31.523438 10.0625 -31.359375 C 10.226562 -31.191406 10.3125 -30.960938 10.3125 -30.671875 L 10.3125 -27.8125 C 10.3125 -27.644531 10.34375 -27.550781 10.40625 -27.53125 C 10.46875 -27.507812 10.539062 -27.5625 10.625 -27.6875 C 12.476562 -30.507812 15 -31.921875 18.1875 -31.921875 Z M 18.1875 -31.921875 "/></g></g></g><g fill="#1174ba" fill-opacity="1"><g transform="translate(132.415237, 61.156015)"><g><path d="M 23.59375 -42.53125 C 23.59375 -42.820312 23.675781 -43.050781 23.84375 -43.21875 C 24.007812 -43.382812 24.238281 -43.46875 24.53125 -43.46875 L 28.625 -43.46875 C 28.914062 -43.46875 29.144531 -43.382812 29.3125 -43.21875 C 29.476562 -43.050781 29.5625 -42.820312 29.5625 -42.53125 L 29.5625 -0.9375 C 29.5625 -0.644531 29.476562 -0.414062 29.3125 -0.25 C 29.144531 -0.0820312 28.914062 0 28.625 0 L 24.53125 0 C 24.238281 0 24.007812 -0.0820312 23.84375 -0.25 C 23.675781 -0.414062 23.59375 -0.644531 23.59375 -0.9375 L 23.59375 -2.546875 C 23.59375 -2.671875 23.550781 -2.753906 23.46875 -2.796875 C 23.382812 -2.835938 23.300781 -2.816406 23.21875 -2.734375 C 22.3125 -1.703125 21.242188 -0.90625 20.015625 -0.34375 C 18.796875 0.21875 17.460938 0.5 16.015625 0.5 C 13.035156 0.5 10.5625 -0.234375 8.59375 -1.703125 C 6.632812 -3.171875 5.195312 -5.253906 4.28125 -7.953125 C 3.539062 -10.015625 3.171875 -12.660156 3.171875 -15.890625 C 3.171875 -18.910156 3.476562 -21.414062 4.09375 -23.40625 C 4.96875 -26.132812 6.40625 -28.265625 8.40625 -29.796875 C 10.414062 -31.335938 12.953125 -32.109375 16.015625 -32.109375 C 17.460938 -32.109375 18.796875 -31.835938 20.015625 -31.296875 C 21.242188 -30.753906 22.3125 -29.96875 23.21875 -28.9375 C 23.300781 -28.851562 23.382812 -28.820312 23.46875 -28.84375 C 23.550781 -28.863281 23.59375 -28.9375 23.59375 -29.0625 Z M 22.046875 -8.015625 C 23.035156 -9.835938 23.53125 -12.441406 23.53125 -15.828125 C 23.53125 -19.222656 22.992188 -21.875 21.921875 -23.78125 C 20.722656 -25.894531 18.960938 -26.953125 16.640625 -26.953125 C 14.242188 -26.953125 12.398438 -25.957031 11.109375 -23.96875 C 9.785156 -21.894531 9.125 -19.160156 9.125 -15.765625 C 9.125 -12.578125 9.644531 -10.015625 10.6875 -8.078125 C 11.882812 -5.796875 13.867188 -4.65625 16.640625 -4.65625 C 19.003906 -4.65625 20.804688 -5.773438 22.046875 -8.015625 Z M 22.046875 -8.015625 "/></g></g></g><g fill="#1174ba" fill-opacity="1"><g transform="translate(166.382369, 61.156015)"><g><path d="M 15.46875 0.375 C 13.019531 0.375 10.851562 0.00390625 8.96875 -0.734375 C 7.082031 -1.484375 5.625 -2.507812 4.59375 -3.8125 C 3.5625 -5.125 3.046875 -6.566406 3.046875 -8.140625 L 3.046875 -8.5 C 3.046875 -8.789062 3.128906 -9.019531 3.296875 -9.1875 C 3.460938 -9.351562 3.6875 -9.4375 3.96875 -9.4375 L 7.828125 -9.4375 C 8.117188 -9.4375 8.34375 -9.394531 8.5 -9.3125 C 8.664062 -9.226562 8.75 -9.125 8.75 -9 L 8.75 -8.5 C 8.75 -7.34375 9.378906 -6.328125 10.640625 -5.453125 C 11.910156 -4.585938 13.5 -4.15625 15.40625 -4.15625 C 17.300781 -4.15625 18.828125 -4.554688 19.984375 -5.359375 C 21.148438 -6.171875 21.734375 -7.195312 21.734375 -8.4375 C 21.734375 -9.644531 21.191406 -10.546875 20.109375 -11.140625 C 19.035156 -11.742188 17.300781 -12.378906 14.90625 -13.046875 C 12.539062 -13.703125 10.5625 -14.367188 8.96875 -15.046875 C 7.375 -15.734375 6.03125 -16.707031 4.9375 -17.96875 C 3.84375 -19.238281 3.296875 -20.863281 3.296875 -22.84375 C 3.296875 -25.625 4.378906 -27.832031 6.546875 -29.46875 C 8.722656 -31.101562 11.613281 -31.921875 15.21875 -31.921875 C 17.613281 -31.921875 19.734375 -31.535156 21.578125 -30.765625 C 23.421875 -30.003906 24.835938 -28.9375 25.828125 -27.5625 C 26.828125 -26.195312 27.328125 -24.664062 27.328125 -22.96875 C 27.328125 -22.726562 27.242188 -22.535156 27.078125 -22.390625 C 26.910156 -22.242188 26.679688 -22.171875 26.390625 -22.171875 L 22.671875 -22.171875 C 22.378906 -22.171875 22.148438 -22.210938 21.984375 -22.296875 C 21.816406 -22.378906 21.734375 -22.484375 21.734375 -22.609375 L 21.734375 -22.96875 C 21.734375 -24.175781 21.140625 -25.179688 19.953125 -25.984375 C 18.773438 -26.796875 17.175781 -27.203125 15.15625 -27.203125 C 13.332031 -27.203125 11.847656 -26.847656 10.703125 -26.140625 C 9.566406 -25.429688 9 -24.476562 9 -23.28125 C 9 -22.082031 9.546875 -21.171875 10.640625 -20.546875 C 11.742188 -19.929688 13.515625 -19.269531 15.953125 -18.5625 C 18.359375 -17.90625 20.359375 -17.253906 21.953125 -16.609375 C 23.546875 -15.960938 24.898438 -15.007812 26.015625 -13.75 C 27.128906 -12.488281 27.6875 -10.84375 27.6875 -8.8125 C 27.6875 -6 26.578125 -3.765625 24.359375 -2.109375 C 22.148438 -0.453125 19.1875 0.375 15.46875 0.375 Z M 15.46875 0.375 "/></g></g></g><g fill="#1174ba" fill-opacity="1"><g transform="translate(196.685779, 61.156015)"><g><path d="M 19.0625 0.5625 C 16.082031 0.5625 13.441406 -0.0234375 11.140625 -1.203125 C 8.847656 -2.390625 7.066406 -4.066406 5.796875 -6.234375 C 4.535156 -8.410156 3.90625 -10.90625 3.90625 -13.71875 L 3.90625 -29.8125 C 3.90625 -32.625 4.535156 -35.09375 5.796875 -37.21875 C 7.066406 -39.351562 8.847656 -41.007812 11.140625 -42.1875 C 13.441406 -43.375 16.082031 -43.96875 19.0625 -43.96875 C 22.039062 -43.96875 24.664062 -43.394531 26.9375 -42.25 C 29.21875 -41.113281 30.988281 -39.507812 32.25 -37.4375 C 33.519531 -35.375 34.15625 -32.972656 34.15625 -30.234375 C 34.15625 -29.828125 33.84375 -29.582031 33.21875 -29.5 L 29.125 -29.25 L 28.875 -29.25 C 28.664062 -29.25 28.5 -29.289062 28.375 -29.375 C 28.25 -29.457031 28.1875 -29.539062 28.1875 -29.625 L 28.1875 -29.984375 C 28.1875 -32.640625 27.359375 -34.773438 25.703125 -36.390625 C 24.046875 -38.003906 21.832031 -38.8125 19.0625 -38.8125 C 16.289062 -38.8125 14.066406 -38.003906 12.390625 -36.390625 C 10.710938 -34.773438 9.875 -32.640625 9.875 -29.984375 L 9.875 -13.46875 C 9.875 -10.820312 10.710938 -8.691406 12.390625 -7.078125 C 14.066406 -5.460938 16.289062 -4.65625 19.0625 -4.65625 C 21.832031 -4.65625 24.046875 -5.460938 25.703125 -7.078125 C 27.359375 -8.691406 28.1875 -10.820312 28.1875 -13.46875 C 28.1875 -13.71875 28.269531 -13.90625 28.4375 -14.03125 C 28.601562 -14.15625 28.832031 -14.195312 29.125 -14.15625 L 33.21875 -13.90625 C 33.84375 -13.820312 34.15625 -13.71875 34.15625 -13.59375 L 34.15625 -13.28125 C 34.15625 -10.550781 33.519531 -8.140625 32.25 -6.046875 C 30.988281 -3.960938 29.21875 -2.335938 26.9375 -1.171875 C 24.664062 -0.015625 22.039062 0.5625 19.0625 0.5625 Z M 19.0625 0.5625 "/></g></g></g><g fill="#1174ba" fill-opacity="1"><g transform="translate(234.37874, 61.156015)"><g><path d="M 30.109375 0 C 29.617188 0 29.269531 -0.226562 29.0625 -0.6875 L 20.484375 -19.0625 C 20.398438 -19.226562 20.28125 -19.3125 20.125 -19.3125 L 11.359375 -19.3125 C 11.148438 -19.3125 11.046875 -19.207031 11.046875 -19 L 11.046875 -0.9375 C 11.046875 -0.644531 10.960938 -0.414062 10.796875 -0.25 C 10.640625 -0.0820312 10.414062 0 10.125 0 L 6.015625 0 C 5.734375 0 5.507812 -0.0820312 5.34375 -0.25 C 5.175781 -0.414062 5.09375 -0.644531 5.09375 -0.9375 L 5.09375 -42.59375 C 5.09375 -42.882812 5.175781 -43.113281 5.34375 -43.28125 C 5.507812 -43.445312 5.734375 -43.53125 6.015625 -43.53125 L 22.421875 -43.53125 C 24.898438 -43.53125 27.082031 -43.007812 28.96875 -41.96875 C 30.851562 -40.9375 32.3125 -39.488281 33.34375 -37.625 C 34.375 -35.757812 34.890625 -33.609375 34.890625 -31.171875 C 34.890625 -28.316406 34.125 -25.882812 32.59375 -23.875 C 31.0625 -21.863281 28.992188 -20.507812 26.390625 -19.8125 C 26.222656 -19.726562 26.160156 -19.601562 26.203125 -19.4375 L 35.015625 -1.125 L 35.140625 -0.625 C 35.140625 -0.207031 34.875 0 34.34375 0 Z M 11.359375 -38.375 C 11.148438 -38.375 11.046875 -38.269531 11.046875 -38.0625 L 11.046875 -24.28125 C 11.046875 -24.070312 11.148438 -23.96875 11.359375 -23.96875 L 21.671875 -23.96875 C 23.828125 -23.96875 25.578125 -24.628906 26.921875 -25.953125 C 28.265625 -27.273438 28.9375 -28.992188 28.9375 -31.109375 C 28.9375 -33.304688 28.273438 -35.066406 26.953125 -36.390625 C 25.628906 -37.710938 23.867188 -38.375 21.671875 -38.375 Z M 11.359375 -38.375 "/></g></g></g><g fill="#1174ba" fill-opacity="1"><g transform="translate(272.444281, 61.156015)"><g><path d="M 6.078125 0 C 5.796875 0 5.570312 -0.0820312 5.40625 -0.25 C 5.238281 -0.414062 5.15625 -0.644531 5.15625 -0.9375 L 5.15625 -42.53125 C 5.15625 -42.820312 5.238281 -43.050781 5.40625 -43.21875 C 5.570312 -43.382812 5.796875 -43.46875 6.078125 -43.46875 L 10.25 -43.46875 C 10.738281 -43.46875 11.109375 -43.257812 11.359375 -42.84375 L 21.796875 -26.203125 C 21.921875 -25.953125 22.046875 -25.953125 22.171875 -26.203125 L 32.65625 -42.84375 C 32.90625 -43.257812 33.28125 -43.46875 33.78125 -43.46875 L 37.9375 -43.46875 C 38.226562 -43.46875 38.457031 -43.382812 38.625 -43.21875 C 38.789062 -43.050781 38.875 -42.820312 38.875 -42.53125 L 38.875 -0.9375 C 38.875 -0.644531 38.789062 -0.414062 38.625 -0.25 C 38.457031 -0.0820312 38.226562 0 37.9375 0 L 33.84375 0 C 33.550781 0 33.320312 -0.0820312 33.15625 -0.25 C 32.988281 -0.414062 32.90625 -0.644531 32.90625 -0.9375 L 32.90625 -32.46875 C 32.90625 -32.632812 32.863281 -32.726562 32.78125 -32.75 C 32.695312 -32.769531 32.613281 -32.71875 32.53125 -32.59375 L 24.09375 -18.8125 C 23.84375 -18.394531 23.46875 -18.1875 22.96875 -18.1875 L 20.984375 -18.1875 C 20.492188 -18.1875 20.125 -18.394531 19.875 -18.8125 L 11.484375 -32.59375 C 11.398438 -32.71875 11.316406 -32.769531 11.234375 -32.75 C 11.148438 -32.726562 11.109375 -32.632812 11.109375 -32.46875 L 11.109375 -0.9375 C 11.109375 -0.644531 11.023438 -0.414062 10.859375 -0.25 C 10.703125 -0.0820312 10.476562 0 10.1875 0 Z M 6.078125 0 "/></g></g></g><g fill="#1174ba" fill-opacity="1"><g transform="translate(316.40905, 61.156015)"><g><path d="M 2.671875 0 C 2.335938 0 2.109375 -0.09375 1.984375 -0.28125 C 1.859375 -0.46875 1.835938 -0.726562 1.921875 -1.0625 L 16.328125 -42.71875 C 16.492188 -43.21875 16.847656 -43.46875 17.390625 -43.46875 L 21.421875 -43.46875 C 21.753906 -43.46875 21.984375 -43.375 22.109375 -43.1875 C 22.234375 -43 22.253906 -42.738281 22.171875 -42.40625 L 7.765625 -0.75 C 7.597656 -0.25 7.242188 0 6.703125 0 Z M 2.671875 0 "/></g></g></g><g fill="#1174ba" fill-opacity="1"><g transform="translate(340.502736, 61.156015)"><g><path d="M 3.296875 -2.671875 C 3.046875 -2.585938 2.898438 -2.546875 2.859375 -2.546875 C 2.398438 -2.546875 2.171875 -2.816406 2.171875 -3.359375 L 2.171875 -7.203125 C 2.171875 -7.703125 2.398438 -8.054688 2.859375 -8.265625 L 21.984375 -16.640625 C 22.234375 -16.765625 22.234375 -16.890625 21.984375 -17.015625 L 2.859375 -25.390625 C 2.398438 -25.640625 2.171875 -25.992188 2.171875 -26.453125 L 2.171875 -30.359375 C 2.171875 -30.691406 2.285156 -30.929688 2.515625 -31.078125 C 2.742188 -31.222656 3.003906 -31.210938 3.296875 -31.046875 L 27.875 -19.8125 C 28.332031 -19.601562 28.5625 -19.25 28.5625 -18.75 L 28.5625 -14.96875 C 28.5625 -14.46875 28.332031 -14.113281 27.875 -13.90625 Z M 3.296875 -2.671875 "/></g></g></g></svg>