<svg xmlns="http://www.w3.org/2000/svg" xmlns:xlink="http://www.w3.org/1999/xlink" width="181" zoomAndPan="magnify" viewBox="0 0 135.75 32.249999" height="43" preserveAspectRatio="xMidYMid meet" version="1.0"><defs><g/></defs><g fill="#ffffff" fill-opacity="1"><g transform="translate(2.748937, 24.044514)"><g><path d="M 10.109375 -1.1875 C 10.109375 -1.070312 10.066406 -0.988281 9.984375 -0.9375 C 9.898438 -0.882812 9.804688 -0.882812 9.703125 -0.9375 L 1.015625 -4.921875 C 0.847656 -4.992188 0.765625 -5.117188 0.765625 -5.296875 L 0.765625 -6.640625 C 0.765625 -6.804688 0.847656 -6.929688 1.015625 -7.015625 L 9.703125 -10.984375 C 9.796875 -11.015625 9.847656 -11.03125 9.859375 -11.03125 C 10.023438 -11.03125 10.109375 -10.9375 10.109375 -10.75 L 10.109375 -9.359375 C 10.109375 -9.191406 10.023438 -9.066406 9.859375 -8.984375 L 3.09375 -6.015625 C 3.007812 -5.972656 3.007812 -5.929688 3.09375 -5.890625 L 9.859375 -2.921875 C 10.023438 -2.847656 10.109375 -2.722656 10.109375 -2.546875 Z M 10.109375 -1.1875 "/></g></g></g><g fill="#ffffff" fill-opacity="1"><g transform="translate(13.621963, 24.044514)"><g><path d="M 2.125 0 C 2.03125 0 1.953125 -0.0234375 1.890625 -0.078125 C 1.828125 -0.140625 1.796875 -0.222656 1.796875 -0.328125 L 1.796875 -15.046875 C 1.796875 -15.148438 1.828125 -15.226562 1.890625 -15.28125 C 1.953125 -15.34375 2.03125 -15.375 2.125 -15.375 L 3.53125 -15.375 C 3.707031 -15.375 3.84375 -15.300781 3.9375 -15.15625 L 10.65625 -4.28125 C 10.6875 -4.238281 10.710938 -4.21875 10.734375 -4.21875 C 10.765625 -4.226562 10.78125 -4.265625 10.78125 -4.328125 L 10.78125 -15.046875 C 10.78125 -15.148438 10.8125 -15.226562 10.875 -15.28125 C 10.9375 -15.34375 11.015625 -15.375 11.109375 -15.375 L 12.5625 -15.375 C 12.664062 -15.375 12.742188 -15.34375 12.796875 -15.28125 C 12.859375 -15.226562 12.890625 -15.148438 12.890625 -15.046875 L 12.890625 -0.328125 C 12.890625 -0.222656 12.859375 -0.140625 12.796875 -0.078125 C 12.742188 -0.0234375 12.664062 0 12.5625 0 L 11.140625 0 C 10.960938 0 10.832031 -0.0703125 10.75 -0.21875 L 4.015625 -11.15625 C 3.984375 -11.195312 3.953125 -11.210938 3.921875 -11.203125 C 3.898438 -11.203125 3.890625 -11.171875 3.890625 -11.109375 L 3.90625 -0.328125 C 3.90625 -0.222656 3.875 -0.140625 3.8125 -0.078125 C 3.757812 -0.0234375 3.679688 0 3.578125 0 Z M 2.125 0 "/></g></g></g><g fill="#ffffff" fill-opacity="1"><g transform="translate(28.295067, 24.044514)"><g><path d="M 8.1875 -10.859375 C 8.1875 -10.953125 8.21875 -11.03125 8.28125 -11.09375 C 8.34375 -11.15625 8.425781 -11.1875 8.53125 -11.1875 L 9.953125 -11.1875 C 10.054688 -11.1875 10.132812 -11.15625 10.1875 -11.09375 C 10.25 -11.03125 10.28125 -10.953125 10.28125 -10.859375 L 10.28125 -0.328125 C 10.28125 -0.222656 10.25 -0.140625 10.1875 -0.078125 C 10.132812 -0.0234375 10.054688 0 9.953125 0 L 8.53125 0 C 8.425781 0 8.34375 -0.0234375 8.28125 -0.078125 C 8.21875 -0.140625 8.1875 -0.222656 8.1875 -0.328125 L 8.1875 -0.984375 C 8.1875 -1.023438 8.171875 -1.050781 8.140625 -1.0625 C 8.117188 -1.070312 8.09375 -1.0625 8.0625 -1.03125 C 7.476562 -0.238281 6.582031 0.15625 5.375 0.15625 C 4.664062 0.15625 4.003906 0.015625 3.390625 -0.265625 C 2.785156 -0.546875 2.300781 -0.957031 1.9375 -1.5 C 1.570312 -2.039062 1.390625 -2.695312 1.390625 -3.46875 L 1.390625 -10.859375 C 1.390625 -10.953125 1.414062 -11.03125 1.46875 -11.09375 C 1.53125 -11.15625 1.613281 -11.1875 1.71875 -11.1875 L 3.140625 -11.1875 C 3.242188 -11.1875 3.320312 -11.15625 3.375 -11.09375 C 3.4375 -11.03125 3.46875 -10.953125 3.46875 -10.859375 L 3.46875 -4.125 C 3.46875 -3.363281 3.664062 -2.765625 4.0625 -2.328125 C 4.46875 -1.890625 5.039062 -1.671875 5.78125 -1.671875 C 6.507812 -1.671875 7.09375 -1.894531 7.53125 -2.34375 C 7.96875 -2.789062 8.1875 -3.382812 8.1875 -4.125 Z M 8.1875 -10.859375 "/></g></g></g><g fill="#ffffff" fill-opacity="1"><g transform="translate(40.112627, 24.044514)"><g><path d="M 6.4375 -11.296875 C 6.875 -11.296875 7.269531 -11.210938 7.625 -11.046875 C 7.78125 -10.960938 7.835938 -10.828125 7.796875 -10.640625 L 7.484375 -9.203125 C 7.472656 -9.054688 7.398438 -8.984375 7.265625 -8.984375 C 7.191406 -8.984375 7.132812 -8.988281 7.09375 -9 C 6.875 -9.070312 6.625 -9.109375 6.34375 -9.109375 C 6.195312 -9.109375 6.085938 -9.101562 6.015625 -9.09375 C 5.328125 -9.0625 4.757812 -8.820312 4.3125 -8.375 C 3.863281 -7.9375 3.640625 -7.359375 3.640625 -6.640625 L 3.640625 -0.328125 C 3.640625 -0.222656 3.609375 -0.140625 3.546875 -0.078125 C 3.492188 -0.0234375 3.414062 0 3.3125 0 L 1.875 0 C 1.769531 0 1.6875 -0.0234375 1.625 -0.078125 C 1.5625 -0.140625 1.53125 -0.222656 1.53125 -0.328125 L 1.53125 -10.859375 C 1.53125 -10.953125 1.5625 -11.03125 1.625 -11.09375 C 1.6875 -11.15625 1.769531 -11.1875 1.875 -11.1875 L 3.3125 -11.1875 C 3.414062 -11.1875 3.492188 -11.15625 3.546875 -11.09375 C 3.609375 -11.03125 3.640625 -10.953125 3.640625 -10.859375 L 3.640625 -9.84375 C 3.640625 -9.78125 3.648438 -9.742188 3.671875 -9.734375 C 3.703125 -9.734375 3.726562 -9.753906 3.75 -9.796875 C 4.414062 -10.796875 5.3125 -11.296875 6.4375 -11.296875 Z M 6.4375 -11.296875 "/></g></g></g><g fill="#ffffff" fill-opacity="1"><g transform="translate(48.261914, 24.044514)"><g><path d="M 8.34375 -15.046875 C 8.34375 -15.148438 8.375 -15.226562 8.4375 -15.28125 C 8.5 -15.34375 8.578125 -15.375 8.671875 -15.375 L 10.125 -15.375 C 10.226562 -15.375 10.304688 -15.34375 10.359375 -15.28125 C 10.421875 -15.226562 10.453125 -15.148438 10.453125 -15.046875 L 10.453125 -0.328125 C 10.453125 -0.222656 10.421875 -0.140625 10.359375 -0.078125 C 10.304688 -0.0234375 10.226562 0 10.125 0 L 8.671875 0 C 8.578125 0 8.5 -0.0234375 8.4375 -0.078125 C 8.375 -0.140625 8.34375 -0.222656 8.34375 -0.328125 L 8.34375 -0.90625 C 8.34375 -0.945312 8.328125 -0.972656 8.296875 -0.984375 C 8.273438 -1.003906 8.25 -1 8.21875 -0.96875 C 7.894531 -0.601562 7.515625 -0.320312 7.078125 -0.125 C 6.648438 0.0703125 6.179688 0.171875 5.671875 0.171875 C 4.617188 0.171875 3.742188 -0.0859375 3.046875 -0.609375 C 2.347656 -1.128906 1.835938 -1.863281 1.515625 -2.8125 C 1.253906 -3.539062 1.125 -4.476562 1.125 -5.625 C 1.125 -6.695312 1.234375 -7.582031 1.453125 -8.28125 C 1.753906 -9.25 2.257812 -10.003906 2.96875 -10.546875 C 3.6875 -11.085938 4.585938 -11.359375 5.671875 -11.359375 C 6.179688 -11.359375 6.648438 -11.257812 7.078125 -11.0625 C 7.515625 -10.875 7.894531 -10.597656 8.21875 -10.234375 C 8.25 -10.203125 8.273438 -10.191406 8.296875 -10.203125 C 8.328125 -10.210938 8.34375 -10.238281 8.34375 -10.28125 Z M 7.796875 -2.828125 C 8.148438 -3.472656 8.328125 -4.398438 8.328125 -5.609375 C 8.328125 -6.804688 8.132812 -7.742188 7.75 -8.421875 C 7.332031 -9.160156 6.710938 -9.53125 5.890625 -9.53125 C 5.035156 -9.53125 4.382812 -9.179688 3.9375 -8.484375 C 3.46875 -7.742188 3.234375 -6.773438 3.234375 -5.578125 C 3.234375 -4.453125 3.414062 -3.546875 3.78125 -2.859375 C 4.207031 -2.046875 4.910156 -1.640625 5.890625 -1.640625 C 6.722656 -1.640625 7.359375 -2.035156 7.796875 -2.828125 Z M 7.796875 -2.828125 "/></g></g></g><g fill="#ffffff" fill-opacity="1"><g transform="translate(60.277163, 24.044514)"><g><path d="M 5.46875 0.125 C 4.601562 0.125 3.835938 -0.00390625 3.171875 -0.265625 C 2.503906 -0.523438 1.988281 -0.882812 1.625 -1.34375 C 1.257812 -1.8125 1.078125 -2.320312 1.078125 -2.875 L 1.078125 -3.015625 C 1.078125 -3.109375 1.101562 -3.1875 1.15625 -3.25 C 1.21875 -3.3125 1.300781 -3.34375 1.40625 -3.34375 L 2.765625 -3.34375 C 2.867188 -3.34375 2.945312 -3.328125 3 -3.296875 C 3.0625 -3.265625 3.09375 -3.226562 3.09375 -3.1875 L 3.09375 -3.015625 C 3.09375 -2.597656 3.316406 -2.234375 3.765625 -1.921875 C 4.210938 -1.617188 4.773438 -1.46875 5.453125 -1.46875 C 6.117188 -1.46875 6.65625 -1.609375 7.0625 -1.890625 C 7.476562 -2.179688 7.6875 -2.546875 7.6875 -2.984375 C 7.6875 -3.410156 7.492188 -3.726562 7.109375 -3.9375 C 6.734375 -4.15625 6.117188 -4.378906 5.265625 -4.609375 C 4.429688 -4.847656 3.734375 -5.085938 3.171875 -5.328125 C 2.609375 -5.566406 2.132812 -5.910156 1.75 -6.359375 C 1.363281 -6.804688 1.171875 -7.378906 1.171875 -8.078125 C 1.171875 -9.066406 1.550781 -9.847656 2.3125 -10.421875 C 3.082031 -11.003906 4.101562 -11.296875 5.375 -11.296875 C 6.226562 -11.296875 6.976562 -11.160156 7.625 -10.890625 C 8.28125 -10.617188 8.785156 -10.238281 9.140625 -9.75 C 9.492188 -9.269531 9.671875 -8.726562 9.671875 -8.125 C 9.671875 -8.039062 9.640625 -7.972656 9.578125 -7.921875 C 9.515625 -7.867188 9.4375 -7.84375 9.34375 -7.84375 L 8.015625 -7.84375 C 7.910156 -7.84375 7.828125 -7.859375 7.765625 -7.890625 C 7.710938 -7.921875 7.6875 -7.957031 7.6875 -8 L 7.6875 -8.125 C 7.6875 -8.550781 7.476562 -8.90625 7.0625 -9.1875 C 6.644531 -9.476562 6.078125 -9.625 5.359375 -9.625 C 4.710938 -9.625 4.1875 -9.5 3.78125 -9.25 C 3.382812 -9 3.1875 -8.660156 3.1875 -8.234375 C 3.1875 -7.804688 3.378906 -7.484375 3.765625 -7.265625 C 4.148438 -7.046875 4.773438 -6.8125 5.640625 -6.5625 C 6.492188 -6.332031 7.203125 -6.101562 7.765625 -5.875 C 8.328125 -5.644531 8.804688 -5.304688 9.203125 -4.859375 C 9.597656 -4.421875 9.796875 -3.84375 9.796875 -3.125 C 9.796875 -2.125 9.40625 -1.332031 8.625 -0.75 C 7.84375 -0.164062 6.789062 0.125 5.46875 0.125 Z M 5.46875 0.125 "/></g></g></g><g fill="#ffffff" fill-opacity="1"><g transform="translate(70.996432, 24.044514)"><g><path d="M 6.75 0.203125 C 5.6875 0.203125 4.75 -0.00390625 3.9375 -0.421875 C 3.125 -0.835938 2.492188 -1.429688 2.046875 -2.203125 C 1.609375 -2.972656 1.390625 -3.859375 1.390625 -4.859375 L 1.390625 -10.546875 C 1.390625 -11.535156 1.609375 -12.40625 2.046875 -13.15625 C 2.492188 -13.914062 3.125 -14.503906 3.9375 -14.921875 C 4.75 -15.335938 5.6875 -15.546875 6.75 -15.546875 C 7.800781 -15.546875 8.726562 -15.34375 9.53125 -14.9375 C 10.34375 -14.539062 10.96875 -13.976562 11.40625 -13.25 C 11.851562 -12.519531 12.078125 -11.671875 12.078125 -10.703125 C 12.078125 -10.554688 11.96875 -10.46875 11.75 -10.4375 L 10.296875 -10.34375 L 10.21875 -10.34375 C 10.144531 -10.34375 10.082031 -10.359375 10.03125 -10.390625 C 9.988281 -10.421875 9.96875 -10.453125 9.96875 -10.484375 L 9.96875 -10.609375 C 9.96875 -11.546875 9.675781 -12.300781 9.09375 -12.875 C 8.507812 -13.445312 7.726562 -13.734375 6.75 -13.734375 C 5.757812 -13.734375 4.96875 -13.445312 4.375 -12.875 C 3.789062 -12.300781 3.5 -11.546875 3.5 -10.609375 L 3.5 -4.765625 C 3.5 -3.828125 3.789062 -3.070312 4.375 -2.5 C 4.96875 -1.925781 5.757812 -1.640625 6.75 -1.640625 C 7.726562 -1.640625 8.507812 -1.925781 9.09375 -2.5 C 9.675781 -3.070312 9.96875 -3.828125 9.96875 -4.765625 C 9.96875 -4.859375 10 -4.925781 10.0625 -4.96875 C 10.125 -5.007812 10.203125 -5.023438 10.296875 -5.015625 L 11.75 -4.921875 C 11.96875 -4.890625 12.078125 -4.851562 12.078125 -4.8125 L 12.078125 -4.703125 C 12.078125 -3.734375 11.851562 -2.878906 11.40625 -2.140625 C 10.96875 -1.398438 10.34375 -0.820312 9.53125 -0.40625 C 8.726562 0 7.800781 0.203125 6.75 0.203125 Z M 6.75 0.203125 "/></g></g></g><g fill="#ffffff" fill-opacity="1"><g transform="translate(84.329626, 24.044514)"><g><path d="M 10.65625 0 C 10.476562 0 10.351562 -0.078125 10.28125 -0.234375 L 7.25 -6.75 C 7.21875 -6.800781 7.175781 -6.828125 7.125 -6.828125 L 4.015625 -6.828125 C 3.941406 -6.828125 3.90625 -6.789062 3.90625 -6.71875 L 3.90625 -0.328125 C 3.90625 -0.222656 3.875 -0.140625 3.8125 -0.078125 C 3.757812 -0.0234375 3.679688 0 3.578125 0 L 2.125 0 C 2.03125 0 1.953125 -0.0234375 1.890625 -0.078125 C 1.828125 -0.140625 1.796875 -0.222656 1.796875 -0.328125 L 1.796875 -15.078125 C 1.796875 -15.171875 1.828125 -15.25 1.890625 -15.3125 C 1.953125 -15.375 2.03125 -15.40625 2.125 -15.40625 L 7.9375 -15.40625 C 8.8125 -15.40625 9.582031 -15.21875 10.25 -14.84375 C 10.914062 -14.476562 11.429688 -13.96875 11.796875 -13.3125 C 12.160156 -12.65625 12.34375 -11.894531 12.34375 -11.03125 C 12.34375 -10.019531 12.070312 -9.15625 11.53125 -8.4375 C 10.988281 -7.726562 10.257812 -7.253906 9.34375 -7.015625 C 9.28125 -6.984375 9.253906 -6.9375 9.265625 -6.875 L 12.390625 -0.390625 L 12.4375 -0.21875 C 12.4375 -0.0703125 12.34375 0 12.15625 0 Z M 4.015625 -13.578125 C 3.941406 -13.578125 3.90625 -13.539062 3.90625 -13.46875 L 3.90625 -8.59375 C 3.90625 -8.519531 3.941406 -8.484375 4.015625 -8.484375 L 7.671875 -8.484375 C 8.429688 -8.484375 9.046875 -8.71875 9.515625 -9.1875 C 9.992188 -9.65625 10.234375 -10.257812 10.234375 -11 C 10.234375 -11.78125 10 -12.40625 9.53125 -12.875 C 9.0625 -13.34375 8.441406 -13.578125 7.671875 -13.578125 Z M 4.015625 -13.578125 "/></g></g></g><g fill="#ffffff" fill-opacity="1"><g transform="translate(97.794611, 24.044514)"><g><path d="M 2.15625 0 C 2.050781 0 1.96875 -0.0234375 1.90625 -0.078125 C 1.851562 -0.140625 1.828125 -0.222656 1.828125 -0.328125 L 1.828125 -15.046875 C 1.828125 -15.148438 1.851562 -15.226562 1.90625 -15.28125 C 1.96875 -15.34375 2.050781 -15.375 2.15625 -15.375 L 3.625 -15.375 C 3.800781 -15.375 3.929688 -15.300781 4.015625 -15.15625 L 7.71875 -9.265625 C 7.757812 -9.179688 7.800781 -9.179688 7.84375 -9.265625 L 11.5625 -15.15625 C 11.644531 -15.300781 11.773438 -15.375 11.953125 -15.375 L 13.421875 -15.375 C 13.523438 -15.375 13.601562 -15.34375 13.65625 -15.28125 C 13.71875 -15.226562 13.75 -15.148438 13.75 -15.046875 L 13.75 -0.328125 C 13.75 -0.222656 13.71875 -0.140625 13.65625 -0.078125 C 13.601562 -0.0234375 13.523438 0 13.421875 0 L 11.96875 0 C 11.863281 0 11.78125 -0.0234375 11.71875 -0.078125 C 11.664062 -0.140625 11.640625 -0.222656 11.640625 -0.328125 L 11.640625 -11.484375 C 11.640625 -11.546875 11.625 -11.578125 11.59375 -11.578125 C 11.570312 -11.585938 11.546875 -11.570312 11.515625 -11.53125 L 8.53125 -6.65625 C 8.4375 -6.507812 8.300781 -6.4375 8.125 -6.4375 L 7.421875 -6.4375 C 7.242188 -6.4375 7.113281 -6.507812 7.03125 -6.65625 L 4.0625 -11.53125 C 4.03125 -11.570312 4 -11.585938 3.96875 -11.578125 C 3.945312 -11.578125 3.9375 -11.546875 3.9375 -11.484375 L 3.9375 -0.328125 C 3.9375 -0.222656 3.90625 -0.140625 3.84375 -0.078125 C 3.78125 -0.0234375 3.703125 0 3.609375 0 Z M 2.15625 0 "/></g></g></g><g fill="#ffffff" fill-opacity="1"><g transform="translate(113.34634, 24.044514)"><g><path d="M 0.9375 0 C 0.820312 0 0.742188 -0.03125 0.703125 -0.09375 C 0.660156 -0.164062 0.65625 -0.257812 0.6875 -0.375 L 5.78125 -15.109375 C 5.832031 -15.285156 5.957031 -15.375 6.15625 -15.375 L 7.578125 -15.375 C 7.691406 -15.375 7.769531 -15.34375 7.8125 -15.28125 C 7.863281 -15.21875 7.875 -15.125 7.84375 -15 L 2.75 -0.265625 C 2.6875 -0.0859375 2.5625 0 2.375 0 Z M 0.9375 0 "/></g></g></g><g fill="#ffffff" fill-opacity="1"><g transform="translate(121.869039, 24.044514)"><g><path d="M 1.171875 -0.9375 C 1.078125 -0.914062 1.023438 -0.90625 1.015625 -0.90625 C 0.847656 -0.90625 0.765625 -1 0.765625 -1.1875 L 0.765625 -2.546875 C 0.765625 -2.722656 0.847656 -2.847656 1.015625 -2.921875 L 7.78125 -5.890625 C 7.863281 -5.929688 7.863281 -5.972656 7.78125 -6.015625 L 1.015625 -8.984375 C 0.847656 -9.066406 0.765625 -9.191406 0.765625 -9.359375 L 0.765625 -10.75 C 0.765625 -10.863281 0.804688 -10.945312 0.890625 -11 C 0.972656 -11.050781 1.066406 -11.046875 1.171875 -10.984375 L 9.859375 -7.015625 C 10.023438 -6.929688 10.109375 -6.804688 10.109375 -6.640625 L 10.109375 -5.296875 C 10.109375 -5.117188 10.023438 -4.992188 9.859375 -4.921875 Z M 1.171875 -0.9375 "/></g></g></g></svg>